<svg width="42" height="13" viewBox="0 0 42 13" fill="none" xmlns="http://www.w3.org/2000/svg">
<path d="M6.4 12.1661H6.37L1.45 6.73609L1.77 6.88609L1.18 11.9061H0L0.93 4.37609H0.98L5.81 9.80609L5.56 9.71609L6.16 4.62609H7.33L6.4 12.1661Z" fill="#4C5857"/>
<path d="M6.95031 7.54H5.82031L6.75031 0H6.76031L10.0003 5.55L9.51031 5.44L14.0803 0H14.1003L13.1703 7.54H12.0103L12.6103 2.63L12.6203 3.23L9.53031 6.95H9.51031L7.28031 3.23L7.55031 2.68L6.95031 7.54Z" fill="#4C5857"/>
<path d="M15.2702 7.54H14.5802L17.0762 2.992H17.1182L18.4922 7.54H17.6882L16.7462 4.096L17.2922 3.76L15.2702 7.54ZM16.0022 5.92H17.4962L17.6582 6.514H15.7142L16.0022 5.92Z" fill="#4C5857"/>
<path d="M20.2815 4.846L20.2275 5.068L20.3475 4.93L22.2015 3.172H23.1075L21.0675 5.08L22.6335 7.54H21.7515L20.5035 5.524L20.1615 5.824L19.9515 7.54H19.2435L19.7775 3.172H20.4855L20.2815 4.846Z" fill="#4C5857"/>
<path d="M25.2577 7.582C25.0017 7.582 24.7477 7.54 24.4957 7.456C24.2477 7.372 24.0237 7.244 23.8237 7.072C23.6237 6.9 23.4637 6.684 23.3437 6.424C23.2237 6.164 23.1637 5.858 23.1637 5.506C23.1637 5.242 23.2117 4.972 23.3077 4.696C23.4077 4.416 23.5557 4.158 23.7517 3.922C23.9517 3.686 24.1997 3.496 24.4957 3.352C24.7957 3.204 25.1437 3.13 25.5397 3.13C25.7997 3.13 26.0537 3.172 26.3017 3.256C26.5497 3.34 26.7737 3.468 26.9737 3.64C27.1777 3.812 27.3377 4.028 27.4537 4.288C27.5737 4.548 27.6337 4.854 27.6337 5.206C27.6337 5.47 27.5837 5.742 27.4837 6.022C27.3877 6.298 27.2417 6.554 27.0457 6.79C26.8497 7.026 26.6017 7.218 26.3017 7.366C26.0057 7.51 25.6577 7.582 25.2577 7.582ZM25.2697 6.91C25.5577 6.91 25.8057 6.858 26.0137 6.754C26.2217 6.65 26.3917 6.516 26.5237 6.352C26.6557 6.184 26.7537 6.004 26.8177 5.812C26.8817 5.616 26.9137 5.426 26.9137 5.242C26.9137 5.046 26.8777 4.862 26.8057 4.69C26.7377 4.518 26.6397 4.366 26.5117 4.234C26.3877 4.098 26.2397 3.992 26.0677 3.916C25.8997 3.84 25.7137 3.802 25.5097 3.802C25.2217 3.802 24.9737 3.854 24.7657 3.958C24.5617 4.058 24.3937 4.192 24.2617 4.36C24.1297 4.528 24.0337 4.71 23.9737 4.906C23.9137 5.098 23.8837 5.286 23.8837 5.47C23.8837 5.662 23.9177 5.846 23.9857 6.022C24.0537 6.194 24.1477 6.348 24.2677 6.484C24.3917 6.616 24.5377 6.72 24.7057 6.796C24.8777 6.872 25.0657 6.91 25.2697 6.91Z" fill="#4C5857"/>
<path d="M29.5811 7.708L28.1891 3.172H29.0231L29.9831 6.58L29.5871 6.496L31.2791 3.172H32.1011L29.6051 7.708H29.5811Z" fill="#4C5857"/>
<path d="M32.9142 3.172H33.6342L33.1002 7.54H32.3802L32.9142 3.172Z" fill="#4C5857"/>
<path d="M34.5358 3.172H37.4578L37.3678 3.856H36.2578L35.8018 7.54H35.0818L35.5378 3.856H34.4458L34.5358 3.172Z" fill="#4C5857"/>
<path d="M37.3918 7.54L40.3918 3.652L40.4818 3.844H38.6458C38.5658 3.844 38.4858 3.828 38.4058 3.796C38.3298 3.764 38.2678 3.718 38.2198 3.658C38.1758 3.598 38.1578 3.528 38.1658 3.448L38.2258 2.95H38.8678L38.8618 3.034C38.8578 3.082 38.8678 3.118 38.8918 3.142C38.9158 3.162 38.9638 3.172 39.0358 3.172H41.5738L38.6398 6.946L38.5798 6.868H41.1658L41.0818 7.54H37.3918Z" fill="#4C5857"/>
<path d="M6.4 12.1661H6.37L1.45 6.73609L1.77 6.88609L1.18 11.9061H0L0.93 4.37609H0.98L5.81 9.80609L5.56 9.71609L6.16 4.62609H7.33L6.4 12.1661Z" fill="#4C5857"/>
<path d="M6.95031 7.54H5.82031L6.75031 0H6.76031L10.0003 5.55L9.51031 5.44L14.0803 0H14.1003L12.6203 12.1661H11.4603L12.6103 2.63L12.6203 3.23L9.53031 6.95H9.51031L7.28031 3.23L7.55031 2.68L6.95031 7.54Z" fill="#4C5857"/>
</svg>
