<svg width="45" height="19" viewBox="0 0 45 19" fill="none" xmlns="http://www.w3.org/2000/svg">
<path d="M6.40111 11.9848H6.37111L1.45111 6.45767L1.77111 6.60767L1.18 11.9826H0L0.931106 4.09767H0.981106L5.81111 9.52767L5.56111 9.43767L6.16111 4.34767H7.33111L6.40111 11.9848Z" fill="#4C5857"/>
<path d="M6.95142 7.26158H5.82142L6.75244 0H6.76244L10.0014 5.27158L9.51142 5.16158L14.0893 0L11.8243 18.2309H10.6643L12.6114 2.35158L12.6214 2.95158L9.53142 6.97759H9.51142L7.28142 2.95158L7.55142 2.40158L6.95142 7.26158Z" fill="#4C5857"/>
<path d="M14.8642 11.9513H14.0814L16.8438 6.97759H16.8898L17.6429 9.46446L18.3959 11.9513H17.5146L16.4821 8.18494L17.0806 7.81748L14.8642 11.9513ZM15.6666 10.1797C16.1133 9.72209 17.3042 10.1797 17.3042 10.1797L17.4817 10.8293H15.3509C15.3509 10.8293 15.4696 10.3815 15.6666 10.1797Z" fill="#4C5857"/>
<path d="M20.5498 8.90183L20.4885 9.15313L20.6246 8.99692L22.7281 7.00693H23.756L21.4415 9.16671L23.2182 11.9513H22.2175L20.8016 9.6693L20.4136 10.0089L20.1754 11.9513H19.3721L19.978 7.00693H20.7812L20.5498 8.90183Z" fill="#4C5857"/>
<path d="M26.1954 11.9989C25.905 11.9989 25.6168 11.9513 25.3309 11.8563C25.0496 11.7612 24.7954 11.6163 24.5685 11.4216C24.3416 11.2269 24.1601 10.9824 24.0239 10.6881C23.8878 10.3938 23.8197 10.0474 23.8197 9.64893C23.8197 9.35009 23.8742 9.04446 23.9831 8.73204C24.0965 8.41509 24.2645 8.12305 24.4868 7.8559C24.7137 7.58876 24.9951 7.37369 25.3309 7.21068C25.6713 7.04315 26.0661 6.95939 26.5154 6.95939C26.8104 6.95939 27.0985 7.00693 27.3799 7.10201C27.6613 7.1971 27.9154 7.34199 28.1423 7.53669C28.3737 7.73139 28.5553 7.97589 28.6869 8.2702C28.823 8.56451 28.8911 8.91089 28.8911 9.30934C28.8911 9.60818 28.8344 9.91607 28.7209 10.233C28.612 10.5454 28.4464 10.8352 28.224 11.1024C28.0016 11.3695 27.7203 11.5868 27.3799 11.7544C27.0441 11.9174 26.6492 11.9989 26.1954 11.9989ZM26.2091 11.2382C26.5358 11.2382 26.8172 11.1793 27.0531 11.0616C27.2891 10.9439 27.482 10.7922 27.6318 10.6066C27.7815 10.4164 27.8927 10.2126 27.9653 9.99531C28.0379 9.77344 28.0742 9.55837 28.0742 9.35009C28.0742 9.12823 28.0334 8.91995 27.9517 8.72525C27.8745 8.53055 27.7634 8.35849 27.6181 8.20907C27.4775 8.05513 27.3096 7.93514 27.1144 7.84911C26.9238 7.76308 26.7128 7.72007 26.4813 7.72007C26.1546 7.72007 25.8732 7.77893 25.6372 7.89665C25.4058 8.00985 25.2152 8.16153 25.0654 8.3517C24.9157 8.54187 24.8068 8.74789 24.7387 8.96975C24.6706 9.18709 24.6366 9.3999 24.6366 9.60818C24.6366 9.82551 24.6752 10.0338 24.7523 10.233C24.8295 10.4277 24.9361 10.602 25.0722 10.756C25.2129 10.9054 25.3786 11.0231 25.5692 11.1092C25.7643 11.1952 25.9776 11.2382 26.2091 11.2382Z" fill="#4C5857"/>
<path d="M31.1005 12.1415L29.7784 7.96675H30.7246L31.5566 10.8647L31.1073 10.7696L33.027 7.00693H33.9595L31.1277 12.1415H31.1005Z" fill="#4C5857"/>
<path d="M34.882 7.96675H35.6989L35.093 11.9513H34.2762L34.882 7.96675Z" fill="#4C5857"/>
<path d="M36.7218 7.00693H40.0369L39.9348 7.78119H38.6754L38.1581 11.9513H37.3412L37.8586 7.78119H36.6197L36.7218 7.00693Z" fill="#4C5857"/>
<path d="M41.3848 7.76761C41.294 7.76761 41.1033 7.76761 41.1033 7.76761H40.9015V7.32886V7.00693H41.6637C41.7496 7.00693 41.7455 7.00693 41.8272 7.00693H44.7067L41.4468 11.1907H44.2438L44.1485 11.9513H39.9621L43.1976 7.76761H41.3848Z" fill="#4C5857"/>
</svg>
